<?xml version="1.0" encoding="UTF-8" standalone="no"?>
<!-- Created with Inkscape (http://www.inkscape.org/) -->

<svg
   xmlns:dc="http://purl.org/dc/elements/1.1/"
   xmlns:cc="http://creativecommons.org/ns#"
   xmlns:rdf="http://www.w3.org/1999/02/22-rdf-syntax-ns#"
   xmlns:svg="http://www.w3.org/2000/svg"
   xmlns="http://www.w3.org/2000/svg"
   xmlns:sodipodi="http://sodipodi.sourceforge.net/DTD/sodipodi-0.dtd"
   xmlns:inkscape="http://www.inkscape.org/namespaces/inkscape"
   width="210mm"
   height="297mm"
   viewBox="0 0 210 297"
   version="1.1"
   id="svg386"
   inkscape:version="0.92.3 (3ce5693, 2018-03-11)"
   sodipodi:docname="graph.svg">
  <defs
     id="defs380" />
  <sodipodi:namedview
     id="base"
     pagecolor="#ffffff"
     bordercolor="#666666"
     borderopacity="1.0"
     inkscape:pageopacity="0.0"
     inkscape:pageshadow="2"
     inkscape:zoom="0.62"
     inkscape:cx="-45.714286"
     inkscape:cy="560"
     inkscape:document-units="mm"
     inkscape:current-layer="layer1"
     showgrid="false"
     inkscape:window-width="1845"
     inkscape:window-height="1053"
     inkscape:window-x="75"
     inkscape:window-y="27"
     inkscape:window-maximized="1" />
  <metadata
     id="metadata383">
    <rdf:RDF>
      <cc:Work
         rdf:about="">
        <dc:format>image/svg+xml</dc:format>
        <dc:type
           rdf:resource="http://purl.org/dc/dcmitype/StillImage" />
        <dc:title></dc:title>
      </cc:Work>
    </rdf:RDF>
  </metadata>
  <g
     inkscape:label="Layer 1"
     inkscape:groupmode="layer"
     id="layer1">
    <path
       inkscape:connector-curvature="0"
       id="path266"
       d="m 57.776735,164.92811 v -1.77458 h 44.928485 44.92854 v 1.77458 1.77458 H 102.70522 57.776735 Z m 89.608675,0 v -1.5281 H 102.70522 58.025086 v 1.5281 1.5281 h 44.680134 44.68019 z"
       style="fill:#000000;fill-opacity:1;stroke:#000000;stroke-width:0.04948252;stroke-opacity:1" />
    <path
       inkscape:connector-curvature="0"
       id="path268"
       d="m 60.039446,164.92847 v -1.78991 h 30.570538 30.570596 v 0.13653 0.13653 l -30.440656,0.008 -30.440625,0.008 30.440625,0.008 30.440656,0.008 v 1.48652 1.48653 l -30.440656,0.008 -30.440625,0.008 30.440625,0.008 30.440656,0.008 v 0.13653 0.13653 H 90.609984 60.039446 Z"
       style="fill:#000000;fill-opacity:1;stroke:#000000;stroke-width:0.03045383;stroke-opacity:1" />
    <path
       inkscape:connector-curvature="0"
       id="path270"
       d="m 79.892729,164.92847 v -1.78977 h 34.480991 34.4811 v 1.78977 1.7898 h -34.4811 -34.480991 z m 61.456911,1.49401 c -3.98237,-0.006 -10.50827,-0.006 -14.50198,0 -3.99374,0.006 -0.73542,0.008 7.24066,0.008 7.97608,0 11.24364,-0.002 7.26132,-0.008 z m 0,-3.00315 c -3.98237,-0.006 -10.50827,-0.006 -14.50198,0 -3.99374,0.006 -0.73542,0.008 7.24066,0.008 7.97608,0 11.24364,-0.003 7.26132,-0.008 z"
       style="fill:#000000;fill-opacity:1;stroke:#000000;stroke-width:0.03072516;stroke-opacity:1" />
    <rect
       transform="rotate(-90)"
       inkscape:transform-center-y="5.99285"
       inkscape:transform-center-x="10.241691"
       y="57.895809"
       x="-165.80873"
       height="3.2955496"
       width="79.38591"
       id="rect208-2-1"
       style="fill:#000000;fill-opacity:1;stroke:#cccccc;stroke-width:0.26780415;stroke-opacity:1" />
    <path
       inkscape:transform-center-y="5.9940459"
       inkscape:transform-center-x="10.250974"
       inkscape:connector-curvature="0"
       id="path266-2"
       d="M 59.538836,165.90333 H 57.75063 V 126.11647 86.329545 h 1.788206 1.788206 v 39.786925 39.78686 z m 0,-79.353805 H 57.99898 v 39.566945 39.56694 h 1.539856 1.539828 V 126.11647 86.549525 Z"
       style="fill:#000000;fill-opacity:1;stroke:#000000;stroke-width:0.04674366;stroke-opacity:1" />
    <path
       inkscape:transform-center-y="26.97676"
       inkscape:transform-center-x="10.253671"
       inkscape:connector-curvature="0"
       id="path268-7"
       d="M 59.539199,163.89956 H 57.735553 V 136.8275 109.75542 h 0.137647 0.137646 l 0.0084,26.95702 0.0084,26.95703 0.0084,-26.95703 0.0084,-26.95702 h 1.497947 1.497948 l 0.0084,26.95702 0.0084,26.95703 0.0084,-26.95703 0.0084,-26.95702 h 0.137647 0.137646 v 27.07208 27.07206 z"
       style="fill:#000000;fill-opacity:1;stroke:#000000;stroke-width:0.02876821;stroke-opacity:1" />
    <path
       inkscape:transform-center-y="-13.191984"
       inkscape:transform-center-x="10.250234"
       inkscape:connector-curvature="0"
       id="path270-0"
       d="M 59.539199,146.31845 H 57.735553 V 116.32256 86.326695 h 1.803646 1.803674 v 29.995865 29.99589 z m 1.505598,-53.462835 c -0.0056,3.46437 -0.0056,9.141365 0,12.615615 0.0056,3.47422 0.0084,0.63976 0.0084,-6.298835 0,-6.93857 -0.0028,-9.78112 -0.0084,-6.31678 z m -3.026468,0 c -0.0056,3.46437 -0.0056,9.141365 0,12.615615 0.0056,3.47422 0.0084,0.63976 0.0084,-6.298835 0,-6.93857 -0.0028,-9.78112 -0.0084,-6.31678 z"
       style="fill:#000000;fill-opacity:1;stroke:#000000;stroke-width:0.02876821;stroke-opacity:1" />
    <path
       inkscape:connector-curvature="0"
       id="path4025"
       d="m 57.782403,166.33733 v -0.38304 l 1.782455,-0.0112 1.782454,-0.0112 -1.800016,-0.008 -1.799989,-0.008 -1.67e-4,-9.66335 c -8.4e-5,-5.31492 -0.01117,-9.83987 -0.02234,-10.05553 l -0.02234,-0.39211 h 1.822938 1.822939 l -0.01117,8.66127 -0.01117,8.6613 h 11.854756 11.854731 v 1.79499 1.79502 H 71.408167 57.780812 Z m 1.767043,0.0782 c -0.274177,-0.006 -0.732431,-0.006 -1.01853,-3e-5 -0.286126,0.006 -0.06198,0.0112 0.498348,0.0112 0.560191,0 0.794274,-0.006 0.520182,-0.0112 z M 58.063392,164.786 c 0,-0.52895 -0.01396,-0.85794 -0.03518,-0.87137 -0.02234,-0.0168 -0.03518,0.28499 -0.03518,0.87137 0,0.58638 0.01117,0.88549 0.03518,0.87136 0.02234,-0.014 0.03518,-0.34241 0.03518,-0.87136 z m 3.011642,-0.44232 c -0.0056,-0.25519 -0.01117,-0.0561 -0.01117,0.44232 -2.8e-5,0.49843 0.0056,0.70716 0.01117,0.46389 0.0056,-0.24318 0.0056,-0.6511 2.8e-5,-0.90621 z"
       style="fill:#000000;fill-opacity:1;stroke:#000000;stroke-width:0.03498791;stroke-opacity:1" />
    <path
       inkscape:connector-curvature="0"
       id="path4027"
       d="m 57.767829,166.29346 c -0.01117,-0.23481 -0.02848,-4.94014 -0.04021,-10.45626 l -0.02234,-10.02933 h 1.834525 1.834554 l -0.01396,8.65259 -0.01396,8.65256 11.8449,0.008 11.844896,0.008 v 1.79493 1.79494 H 71.410847 57.785558 Z m 0.251282,-1.72382 c -0.0084,-0.13039 -0.01396,-0.0327 -0.01396,0.2161 -5.6e-5,0.24905 0.0056,0.35576 0.01396,0.23677 0.0084,-0.11894 0.0084,-0.32293 1.11e-4,-0.45309 z"
       style="fill:#000000;fill-opacity:1;stroke:#000000;stroke-width:0.03498791;stroke-opacity:1" />
    <ellipse
       ry="1.294506"
       rx="1.361168"
       cy="120.57228"
       cx="80.743088"
       id="path4083"
       style="fill:#7268f6;fill-opacity:1;stroke:#7268f6;stroke-width:0.3785412;stroke-opacity:1" />
    <ellipse
       ry="1.2382232"
       rx="1.3044527"
       cy="111.62334"
       cx="103.82622"
       id="path4085"
       style="fill:#7268f6;fill-opacity:1;stroke:#7268f6;stroke-width:0.3785412;stroke-opacity:1" />
    <ellipse
       cy="131.5475"
       cx="126.45562"
       id="path4089"
       style="fill:#7268f6;fill-opacity:1;stroke:#7268f6;stroke-width:0.3785412;stroke-opacity:1"
       rx="1.2477372"
       ry="1.2382232" />
    <ellipse
       ry="1.1256573"
       rx="1.2477372"
       cy="100.14165"
       cx="148.57457"
       id="path4091"
       style="fill:#7268f6;fill-opacity:1;stroke:#7268f6;stroke-width:0.3785412;stroke-opacity:1" />
    <rect
       transform="matrix(0.93765365,0.34757106,-0.40410133,0.91471423,0,0)"
       y="84.653511"
       x="122.28187"
       height="46.67239"
       width="0.44457603"
       id="rect4117"
       style="fill:#7268f6;fill-opacity:1;stroke:#7268f6;stroke-width:0.29853174;stroke-opacity:1" />
    <rect
       transform="matrix(-0.13706049,0.99056268,-0.93989053,0.3414759,0,0)"
       y="-134.76465"
       x="158.55566"
       height="26.048504"
       width="0.47122505"
       id="rect4117-0"
       style="fill:#7268f6;fill-opacity:1;stroke:#7268f6;stroke-width:0.22961123;stroke-opacity:1" />
    <rect
       transform="matrix(-0.96133965,0.27536534,-0.73116527,-0.68220037,0,0)"
       y="-187.86243"
       x="11.654172"
       height="29.114191"
       width="0.54100615"
       id="rect4117-0-6"
       style="fill:#7268f6;fill-opacity:1;stroke:#7268f6;stroke-width:0.26010042;stroke-opacity:1" />
    <rect
       transform="matrix(0.97341148,0.22906353,-0.57120129,0.82081002,0,0)"
       y="68.504135"
       x="192.16086"
       height="39.01783"
       width="0.50605065"
       id="rect4117-2"
       style="fill:#7268f6;fill-opacity:1;stroke:#7268f6;stroke-width:0.29121661;stroke-opacity:1" />
    <rect
       transform="matrix(0.80320065,0.59570858,-0.32439113,0.94592304,0,0)"
       y="40.555458"
       x="116.52857"
       height="57.718983"
       width="0.31662303"
       id="rect4241"
       style="fill:#499d86;fill-opacity:1;stroke:#499d86;stroke-width:0.58263689;stroke-opacity:1" />
    <ellipse
       ry="1.2411398"
       rx="1.2240661"
       cy="107.54846"
       cx="80.74794"
       id="path4243"
       style="fill:#499d86;fill-opacity:1;stroke:#499d86;stroke-width:0.3785412;stroke-opacity:1" />
    <ellipse
       ry="1.2446909"
       rx="1.2078009"
       cy="99.47049"
       cx="103.85519"
       id="path4249"
       style="fill:#499d86;fill-opacity:1;stroke:#499d86;stroke-width:0.3785412;stroke-opacity:1" />
    <ellipse
       ry="1.1524916"
       rx="1.2078009"
       cy="88.062767"
       cx="126.52464"
       id="path4251"
       style="fill:#499d86;fill-opacity:1;stroke:#499d86;stroke-width:0.3785412;stroke-opacity:1" />
    <ellipse
       ry="1.2446909"
       rx="1.3471625"
       cy="111.91742"
       cx="148.59029"
       id="path4257"
       style="fill:#499d86;fill-opacity:1;stroke:#499d86;stroke-width:0.3785412;stroke-opacity:1" />
    <rect
       transform="matrix(-0.13706049,0.99056268,-0.93989053,0.3414759,0,0)"
       y="-132.86977"
       x="145.63055"
       height="26.048504"
       width="0.47122505"
       id="rect4117-0-9"
       style="fill:#7268f6;fill-opacity:1;stroke:#7268f6;stroke-width:0.22961123;stroke-opacity:1" />
    <path
       inkscape:connector-curvature="0"
       id="path4289"
       d="m 80.321109,108.04558 c 0.02234,-0.16612 0.04691,-0.30849 0.05416,-0.31667 0.0112,-0.0112 18.75923,-6.83241 23.648441,-8.603335 l 0.99695,-0.36107 -0.0315,0.26469 c -0.0464,0.38784 -0.0377,0.37787 -0.43614,0.52074 -0.37503,0.13457 -22.036281,8.003805 -23.441451,8.516005 -0.42487,0.15467 -0.785739,0.28154 -0.801905,0.28154 -0.01675,0 -0.01117,-0.13569 0.01117,-0.30179 z"
       style="fill:#499d86;fill-opacity:1;stroke:#499d86;stroke-width:0.05770447;stroke-opacity:1" />
    <path
       inkscape:connector-curvature="0"
       id="path4289-2"
       d="m 103.26463,99.817795 c 0.001,-0.16752 0.0112,-0.31181 0.0168,-0.3208 0.008,-0.014 17.80056,-9.05101 22.4411,-11.40016 l 0.94621,-0.479 0.001,0.26636 c 10e-4,0.39055 0.008,0.37963 -0.36935,0.56963 -0.35604,0.17897 -20.91283,10.61007 -22.24613,11.28845 -0.40317,0.20521 -0.74617,0.374495 -0.76228,0.376455 -0.0168,0.003 -0.0282,-0.133185 -0.0251,-0.300965 z"
       style="fill:#499d86;fill-opacity:1;stroke:#499d86;stroke-width:0.05773669;stroke-opacity:1" />
    <path
       inkscape:connector-curvature="0"
       id="path4336"
       d="m 126.66763,87.617835 c 0.18511,-0.14072 2.62908,2.51606 10.55758,11.47739 5.67409,6.413275 10.32627,11.761085 10.33816,11.884045 0.0112,0.12285 -0.0614,0.24765 -0.16277,0.27669 -0.10135,0.0293 -4.862,-5.23618 -10.57917,-11.700945 -8.00955,-9.05696 -10.33958,-11.79615 -10.15383,-11.93721 z"
       style="fill:#499d86;fill-opacity:1;stroke:#499d86;stroke-width:0.18017665;stroke-opacity:1" />
    <ellipse
       ry="1.2302178"
       rx="1.301654"
       cy="156.80611"
       cx="80.603523"
       id="path4340"
       style="fill:#666666;fill-opacity:1;stroke:#666666;stroke-width:0.3785412;stroke-opacity:1" />
    <ellipse
       ry="1.168707"
       rx="1.301654"
       cy="132.63234"
       cx="103.66143"
       id="path4342"
       style="fill:#666666;fill-opacity:1;stroke:#666666;stroke-width:0.3785412;stroke-opacity:1" />
    <ellipse
       ry="1.168707"
       rx="1.2396704"
       cy="153.17702"
       cx="126.40936"
       id="path4346"
       style="fill:#666666;fill-opacity:1;stroke:#666666;stroke-width:0.3785412;stroke-opacity:1" />
    <ellipse
       ry="1.168707"
       rx="1.2396704"
       cy="139.76759"
       cx="148.59937"
       id="path4348"
       style="fill:#666666;fill-opacity:1;stroke:#666666;stroke-width:0.3785412;stroke-opacity:1" />
    <path
       inkscape:connector-curvature="0"
       id="path4367"
       d="m 61.715217,162.55266 c 0.01117,-0.196 0.04802,-0.25184 0.196837,-0.2952 0.459232,-0.13514 5.395052,-1.72455 18.057847,-5.81433 1.427033,-0.46091 1.473123,-0.46599 1.475273,-0.16166 0.003,0.35808 0.92162,0.0279 -8.327955,3.00081 -2.713203,0.87234 -6.213002,2.00618 -7.7774,2.51969 -2.903116,0.95294 -3.531209,1.13504 -3.599893,1.04379 -0.02234,-0.0285 -0.03239,-0.16054 -0.02513,-0.2931 z"
       style="fill:#666666;fill-opacity:1;stroke:#666666;stroke-width:0.09890458;stroke-opacity:1" />
    <path
       inkscape:connector-curvature="0"
       id="path4386"
       d="m 81.111224,156.50383 c -0.0726,-0.36816 0.006,-0.708 0.21387,-0.93958 0.50301,-0.55734 22.474816,-23.99915 22.514466,-24.02076 0.0223,-0.014 0.0732,0.12368 0.11001,0.30304 0.0625,0.29987 0.0195,0.37765 -0.52007,0.96437 -0.32335,0.35104 -5.147346,5.50765 -10.720106,11.45926 -5.57274,5.95162 -10.45595,11.16993 -10.85167,11.59633 -0.47877,0.51591 -0.72849,0.72908 -0.74658,0.63734 z"
       style="fill:#666666;fill-opacity:1;stroke:#666666;stroke-width:0.10932825;stroke-opacity:1" />
    <path
       inkscape:connector-curvature="0"
       id="path4403"
       d="m 120.75999,148.67522 c -2.59122,-2.42286 -7.41161,-6.92491 -10.71198,-10.00462 l -6.00067,-5.59937 0.349,-0.0821 c 0.30408,-0.0715 0.38142,-0.0522 0.60076,0.14854 0.13849,0.12675 4.52771,4.21648 9.75396,9.08822 5.22619,4.87174 9.93583,9.25622 10.46589,9.74332 l 0.96372,0.8856 -0.30768,0.11084 c -0.16919,0.0609 -0.32887,0.11169 -0.35472,0.11252 -0.0251,0.001 -2.16711,-1.98041 -4.75828,-4.40324 z"
       style="fill:#666666;fill-opacity:1;stroke:#666666;stroke-width:0.09369832;stroke-opacity:1" />
    <rect
       transform="matrix(0.78235277,0.62283556,-0.85692098,0.5154478,0,0)"
       y="17.56781"
       x="209.20786"
       height="26.186131"
       width="0.30617303"
       id="rect4194-6-9"
       style="fill:#3a4b5e;fill-opacity:1;stroke:#3a4b5e;stroke-width:0.3178167;stroke-opacity:1" />
    <path
       inkscape:connector-curvature="0"
       id="path4420"
       d="m 126.19759,153.06816 c -0.11503,-0.0799 -0.20912,-0.17729 -0.20912,-0.21666 0,-0.0394 0.32804,-0.25575 0.72891,-0.48132 0.96361,-0.54185 19.92898,-11.94273 20.71622,-12.45339 1.18222,-0.76689 1.16717,-0.76127 1.45076,-0.53992 l 0.24737,0.19348 -0.82565,0.48093 c -0.45407,0.2644 -0.88909,0.51384 -0.96671,0.55408 -0.35948,0.1865 -19.36242,11.62866 -19.61099,11.80838 -0.27865,0.2013 -1.24941,0.80002 -1.29732,0.80002 -0.014,0 -0.11866,-0.0656 -0.23369,-0.14518 z"
       style="fill:#666666;fill-opacity:1;stroke:#666666;stroke-width:0.09369832;stroke-opacity:1" />
    <path
       inkscape:connector-curvature="0"
       id="path4388"
       d="m 66.746077,149.96943 c 0,-0.1167 3.127008,-9.32337 6.948867,-20.45898 6.536625,-19.04538 6.9879,-20.2653 7.60681,-20.56212 0.36187,-0.17367 0.70588,-0.49749 0.76448,-0.7199 0.0785,-0.29754 2.79473,-1.38037 10.28195,-4.09882 9.812006,-3.56254 10.197696,-3.68179 10.799266,-3.33915 0.82755,0.47132 1.71888,0.084 2.13475,-0.927375 0.27389,-0.66632 1.24543,-1.21593 10.20009,-5.77083 8.09097,-4.11555 9.97774,-4.9916 10.33824,-4.80013 0.24263,0.12871 0.73347,0.17618 1.0909,0.10526 0.60302,-0.1195 0.91525,0.17478 4.32839,4.08395 2.02321,2.31712 5.46906,6.22495 7.65748,8.684115 2.18844,2.45912 3.97897,4.57403 3.97897,4.69975 0,0.12564 -3.56751,5.36573 -7.92778,11.64449 -6.34325,9.13415 -8.04435,11.43693 -8.51075,11.52105 -0.32061,0.0578 -0.69726,0.14686 -0.83697,0.1974 -0.37243,0.13541 -19.96563,-18.21286 -20.30576,-19.01557 -0.59958,-1.41516 -2.39904,-1.4179 -2.93667,-0.006 -0.23621,0.62111 -0.86525,0.88454 -10.295636,4.31177 -7.77662,2.82626 -10.26534,3.63979 -11.02469,3.60403 -1.376436,-0.0648 -2.04158,0.60109 -1.841364,1.84357 0.129829,0.80586 -0.46166,2.26475 -6.064466,14.9572 -3.414587,7.73532 -6.248321,14.10763 -6.297209,14.16065 -0.04886,0.0531 -0.08879,6.7e-4 -0.08879,-0.11586 z"
       style="fill:none;fill-opacity:1;stroke:none;stroke-width:0.23228012;stroke-opacity:1" />
    <path
       inkscape:connector-curvature="0"
       id="path4390"
       d="m 66.746077,149.96943 c 0,-0.1167 3.127008,-9.32337 6.948867,-20.45898 6.536625,-19.04538 6.9879,-20.2653 7.60681,-20.56212 0.36187,-0.17367 0.70588,-0.49749 0.76448,-0.7199 0.0785,-0.29754 2.79473,-1.38037 10.28195,-4.09882 9.812006,-3.56254 10.197696,-3.68179 10.799266,-3.33915 0.82755,0.47132 1.71888,0.084 2.13475,-0.927375 0.27389,-0.66632 1.24543,-1.21593 10.20009,-5.77083 8.09097,-4.11555 9.97774,-4.9916 10.33824,-4.80013 0.24263,0.12871 0.73347,0.17618 1.0909,0.10526 0.60302,-0.1195 0.91525,0.17478 4.32839,4.08395 2.02321,2.31712 5.46906,6.22495 7.65748,8.684115 2.18844,2.45912 3.97897,4.57403 3.97897,4.69975 0,0.12564 -3.56751,5.36573 -7.92778,11.64449 -6.34325,9.13415 -8.04435,11.43693 -8.51075,11.52105 -0.32061,0.0578 -0.69726,0.14686 -0.83697,0.1974 -0.37243,0.13541 -19.96563,-18.21286 -20.30576,-19.01557 -0.59958,-1.41516 -2.39904,-1.4179 -2.93667,-0.006 -0.23621,0.62111 -0.86525,0.88454 -10.295636,4.31177 -7.77662,2.82626 -10.26534,3.63979 -11.02469,3.60403 -1.376436,-0.0648 -2.04158,0.60109 -1.841364,1.84357 0.129829,0.80586 -0.46166,2.26475 -6.064466,14.9572 -3.414587,7.73532 -6.248321,14.10763 -6.297209,14.16065 -0.04886,0.0531 -0.08879,6.7e-4 -0.08879,-0.11586 z"
       style="fill:none;fill-opacity:1;stroke:none;stroke-width:0.23228012;stroke-opacity:1" />
    <path
       inkscape:connector-curvature="0"
       id="path4392"
       d="m 63.481701,161.57612 c 0,-0.36221 16.631235,-20.03292 16.937493,-20.03292 0.19907,0 0.64029,-0.16138 0.98067,-0.35903 0.59657,-0.34601 0.78294,-0.2909 5.16569,1.52788 2.50075,1.03777 4.58229,1.92002 4.62562,1.96053 0.18902,0.17701 -9.90623,10.63344 -10.22167,10.58726 -0.59149,-0.0865 -1.60913,0.42447 -1.75532,0.88158 -0.107772,0.33705 -1.834581,0.98095 -7.760675,2.89379 -4.192137,1.35318 -7.700731,2.50671 -7.796916,2.56336 -0.09605,0.0567 -0.17478,0.0466 -0.17478,-0.0223 z"
       style="fill:none;fill-opacity:1;stroke:none;stroke-width:0.23228012;stroke-opacity:1" />
    <path
       inkscape:connector-curvature="0"
       id="path4394"
       d="m 63.481701,161.57612 c 0,-0.36221 16.631235,-20.03292 16.937493,-20.03292 0.19907,0 0.64029,-0.16138 0.98067,-0.35903 0.59657,-0.34601 0.78294,-0.2909 5.16569,1.52788 2.50075,1.03777 4.58229,1.92002 4.62562,1.96053 0.18902,0.17701 -9.90623,10.63344 -10.22167,10.58726 -0.59149,-0.0865 -1.60913,0.42447 -1.75532,0.88158 -0.107772,0.33705 -1.834581,0.98095 -7.760675,2.89379 -4.192137,1.35318 -7.700731,2.50671 -7.796916,2.56336 -0.09605,0.0567 -0.17478,0.0466 -0.17478,-0.0223 z"
       style="fill:none;fill-opacity:1;stroke:none;stroke-width:0.23228012;stroke-opacity:1" />
  </g>
</svg>
